<svg width="139" height="139" viewBox="0 0 139 139" fill="none" xmlns="http://www.w3.org/2000/svg">
<g filter="url(#filter0_dd)">
<circle cx="69.5" cy="69.5" r="32.5" fill="#FEC85E"/>
</g>
<path fill-rule="evenodd" clip-rule="evenodd" d="M61.7893 84.0256C60.3157 84.0256 59.1211 82.8311 59.1211 81.3575L59.1211 58.0826C59.1211 56.609 60.3157 55.4144 61.7893 55.4144L63.4937 55.4144C64.5871 55.4144 65.5237 56.1328 66.2574 56.9433C66.3099 57.0013 66.364 57.0583 66.4196 57.1144C68.3866 59.0965 71.5757 59.0965 73.5427 57.1144C73.5983 57.0583 73.6524 57.0013 73.7048 56.9433C74.4386 56.1328 75.3752 55.4144 76.4685 55.4144L77.9113 55.4144C79.3849 55.4144 80.5795 56.609 80.5795 58.0826L80.5795 81.3575C80.5795 82.831 79.3849 84.0256 77.9113 84.0256L76.2109 84.0256C75.1173 84.0256 74.1806 83.3069 73.4468 82.496C73.3941 82.4378 73.3398 82.3806 73.284 82.3243C71.317 80.3422 68.1279 80.3422 66.161 82.3243C66.1051 82.3806 66.0509 82.4378 65.9982 82.496C65.2644 83.3069 64.3276 84.0256 63.234 84.0256L61.7893 84.0256Z" fill="#FFA51F"/>
<path d="M69.5069 74.4553L66.3083 76.1392C65.7766 76.4185 65.1559 75.9675 65.2572 75.3759L65.8676 71.8137C65.9069 71.5778 65.8303 71.3399 65.6586 71.1724L63.0703 68.6486C62.642 68.2287 62.8779 67.5005 63.4717 67.4137L67.051 66.8944C67.2869 66.8593 67.4897 66.7124 67.5952 66.4972L69.1945 63.2557C69.4594 62.7178 70.2269 62.7178 70.4938 63.2557L72.0932 66.4972C72.1987 66.7103 72.4035 66.8593 72.6394 66.8924L76.2167 67.4116C76.8105 67.4985 77.0484 68.2287 76.6181 68.6466L74.0297 71.1703C73.8601 71.3358 73.7815 71.5758 73.8208 71.8116L74.4311 75.3738C74.5325 75.9654 73.9118 76.4164 73.3801 76.1371L70.1794 74.4553C69.9704 74.3457 69.718 74.3457 69.5069 74.4553Z" fill="#FFC952"/>
<defs>
<filter id="filter0_dd" x="0.181816" y="0.181816" width="138.636" height="138.636" filterUnits="userSpaceOnUse" color-interpolation-filters="sRGB">
<feFlood flood-opacity="0" result="BackgroundImageFix"/>
<feColorMatrix in="SourceAlpha" type="matrix" values="0 0 0 0 0 0 0 0 0 0 0 0 0 0 0 0 0 0 127 0"/>
<feOffset/>
<feGaussianBlur stdDeviation="18.4091"/>
<feColorMatrix type="matrix" values="0 0 0 0 1 0 0 0 0 0.648 0 0 0 0 0.12 0 0 0 0.4 0"/>
<feBlend mode="normal" in2="BackgroundImageFix" result="effect1_dropShadow"/>
<feColorMatrix in="SourceAlpha" type="matrix" values="0 0 0 0 0 0 0 0 0 0 0 0 0 0 0 0 0 0 127 0"/>
<feOffset/>
<feGaussianBlur stdDeviation="2"/>
<feColorMatrix type="matrix" values="0 0 0 0 0.996078 0 0 0 0 0.784314 0 0 0 0 0.368627 0 0 0 0.5 0"/>
<feBlend mode="normal" in2="effect1_dropShadow" result="effect2_dropShadow"/>
<feBlend mode="normal" in="SourceGraphic" in2="effect2_dropShadow" result="shape"/>
</filter>
</defs>
</svg>
